<!-- Generator: Adobe Illustrator 21.0.2, SVG Export Plug-In  -->
<svg version="1.1"
	 xmlns="http://www.w3.org/2000/svg" xmlns:xlink="http://www.w3.org/1999/xlink" xmlns:a="http://ns.adobe.com/AdobeSVGViewerExtensions/3.0/"
	 x="0px" y="0px" width="153.7px" height="44.9px" viewBox="0 0 153.7 44.9" style="enable-background:new 0 0 153.7 44.9;"
	 xml:space="preserve">
<style type="text/css">
	.st0{fill:#FFFFFF;}
	.st1{fill:#EF0014;}
</style>
<defs>
</defs>
<g>
	<g transform="translate(-40 -27)">
		<g>
			<g>
				<g>
					<path id="v4nta_1_" class="st0" d="M176.1,69.8h-1v-4.7h1V69.8z M173.2,68.9c0.2-0.1,0.3-0.3,0.3-0.5c0-0.2-0.1-0.4-0.3-0.5
						c-0.2-0.1-0.5-0.2-0.7-0.1h-0.9v1.3h0.7C172.6,69.1,172.9,69.1,173.2,68.9L173.2,68.9z M171.6,67h0.9c0.5,0,1,0.1,1.4,0.3
						c0.3,0.2,0.5,0.6,0.5,1c0,0.4-0.2,0.8-0.5,1.1c-0.4,0.3-0.9,0.4-1.4,0.4h-1.9v-4.7h1V67z M166.2,67.6c0.1,0.4,0.2,0.8,0.3,1.2
						l0.1-0.2l0.3-1l1-2.6h1.3v4.7h-0.9v-3.8l-0.1,0.3c-0.1,0.3-0.2,0.7-0.3,1l-1,2.5h-0.8l-1-2.5c-0.1-0.4-0.3-0.8-0.4-1.2v3.8
						h-0.9v-4.7h1.3L166.2,67.6L166.2,67.6z M161.6,66.1c-0.2-0.2-0.5-0.3-0.7-0.3c-0.3,0-0.5,0.1-0.7,0.3c-0.2,0.2-0.3,0.5-0.3,0.9
						h2.1C161.8,66.7,161.7,66.4,161.6,66.1L161.6,66.1z M161.9,69.8c-0.3,0.1-0.6,0.1-0.8,0.1c-0.6,0-1.2-0.2-1.7-0.6
						c-0.4-0.5-0.6-1.1-0.6-1.7c0-0.7,0.2-1.3,0.6-1.8c0.4-0.4,1-0.7,1.5-0.7c0.5,0,1.1,0.2,1.4,0.6c0.4,0.4,0.6,1,0.5,1.5v0.5h-3.1
						c0,0.4,0.1,0.8,0.4,1c0.2,0.2,0.6,0.4,1,0.4c0.5,0,1-0.1,1.5-0.3v0.8C162.3,69.7,162.1,69.8,161.9,69.8L161.9,69.8z
						 M158.1,65.2v0.8h-1.5v3.9h-1v-3.9h-1.5v-0.8H158.1z M153,69.9c-0.2,0.1-0.5,0.1-0.7,0.1c-0.6,0-1.2-0.2-1.6-0.6
						c-0.7-1.1-0.7-2.5,0-3.6c0.4-0.4,1-0.7,1.6-0.6c0.4,0,0.9,0.1,1.3,0.3l-0.3,0.8c-0.3-0.1-0.7-0.2-1-0.2c-0.8,0-1.2,0.5-1.2,1.6
						c0,0.4,0.1,0.8,0.3,1.2c0.2,0.3,0.5,0.4,0.9,0.4c0.4,0,0.9-0.1,1.2-0.3v0.9C153.4,69.7,153.2,69.8,153,69.9L153,69.9z
						 M145.6,65.2v2.4c0,0.3,0,0.7-0.1,1.2l2.3-3.6h1.2v4.7h-0.9v-2.3c0-0.4,0-0.8,0.1-1.3l-2.3,3.6h-1.2v-4.7L145.6,65.2z
						 M143.1,69.9c-0.2,0-0.5,0.1-0.7,0.1c-0.6,0-1.2-0.2-1.6-0.6c-0.7-1.1-0.7-2.5,0-3.6c0.4-0.4,1-0.7,1.6-0.6
						c0.5,0,0.9,0.1,1.3,0.3l-0.3,0.8c-0.3-0.1-0.7-0.2-1-0.2c-0.8,0-1.2,0.5-1.2,1.6c0,0.4,0.1,0.8,0.3,1.2
						c0.2,0.3,0.5,0.4,0.9,0.4c0.4,0,0.9-0.1,1.2-0.3v0.9C143.4,69.7,143.3,69.8,143.1,69.9L143.1,69.9z M136.4,66.1
						c-0.2-0.2-0.5-0.3-0.7-0.3c-0.3,0-0.5,0.1-0.7,0.3c-0.2,0.2-0.3,0.6-0.3,0.9h2.1C136.7,66.7,136.6,66.4,136.4,66.1L136.4,66.1z
						 M136.7,69.8c-0.3,0.1-0.6,0.1-0.8,0.1c-0.6,0-1.2-0.2-1.7-0.6c-0.4-0.5-0.6-1.1-0.6-1.7c0-0.7,0.2-1.3,0.6-1.8
						c0.4-0.4,1-0.7,1.5-0.7c0.5,0,1.1,0.2,1.4,0.6c0.4,0.4,0.6,1,0.5,1.5v0.5h-3.1c0,0.4,0.1,0.8,0.4,1c0.2,0.2,0.6,0.4,0.9,0.4
						c0.5,0,1-0.1,1.5-0.3v0.8C137.2,69.7,136.9,69.8,136.7,69.8L136.7,69.8z M132.5,69.8h-1v-4.7h1V69.8z M129.5,68.9
						c0.2-0.1,0.3-0.3,0.3-0.5c0-0.2-0.1-0.4-0.3-0.5c-0.2-0.1-0.5-0.2-0.7-0.1h-0.9v1.3h0.7C129,69.1,129.3,69.1,129.5,68.9
						L129.5,68.9z M127.9,65.2V67h0.9c0.5,0,1,0.1,1.4,0.3c0.3,0.2,0.5,0.6,0.5,1c0,0.4-0.2,0.8-0.5,1.1c-0.4,0.3-0.9,0.4-1.4,0.4
						H127v-4.7C127,65.2,127.9,65.2,127.9,65.2z M121.4,65.2h1V67h2.2v-1.9h1v4.7h-1v-2h-2.2v2h-1L121.4,65.2z M119.4,68.4
						c0-0.2-0.1-0.4-0.3-0.5c-0.2-0.1-0.5-0.1-0.7-0.1h-1.1v1.3h1.1c0.3,0,0.5,0,0.7-0.2C119.3,68.8,119.4,68.6,119.4,68.4z
						 M117.3,65.2V67h1.2c1.3,0,1.9,0.4,1.9,1.4c0,0.4-0.2,0.8-0.5,1.1c-0.4,0.3-0.9,0.4-1.4,0.4h-2.1v-4.7L117.3,65.2L117.3,65.2z
						 M114.9,65.2v4.7h-1v-3.9h-1.3c-0.1,0.8-0.2,1.6-0.3,2.3c-0.1,0.4-0.2,0.9-0.5,1.2c-0.2,0.2-0.5,0.4-0.8,0.4
						c-0.2,0-0.4,0-0.5-0.1V69c0.1,0,0.2,0.1,0.3,0.1c0.4-0.1,0.7-0.5,0.7-1c0.2-1,0.3-2,0.4-3H114.9L114.9,65.2z M108.8,66.1
						c-0.2-0.2-0.5-0.3-0.7-0.3c-0.3,0-0.6,0.1-0.8,0.3c-0.2,0.2-0.3,0.6-0.3,0.9h2.1C109.1,66.7,109,66.4,108.8,66.1z M109.1,69.8
						c-0.3,0.1-0.6,0.1-0.8,0.1c-0.6,0-1.2-0.2-1.7-0.6c-0.4-0.5-0.6-1.1-0.6-1.7c0-0.7,0.2-1.3,0.6-1.8c0.4-0.4,0.9-0.7,1.5-0.7
						c0.5,0,1.1,0.2,1.4,0.6c0.4,0.4,0.6,1,0.5,1.5v0.5H107c0,0.4,0.1,0.8,0.4,1c0.3,0.2,0.6,0.4,1,0.4c0.5,0,1-0.1,1.5-0.3v0.8
						C109.6,69.7,109.3,69.8,109.1,69.8L109.1,69.8z M103.9,66.9c0.2-0.1,0.3-0.3,0.2-0.5c0-0.2-0.1-0.3-0.2-0.4
						c-0.2-0.1-0.4-0.1-0.6-0.1h-1.2V67h1C103.4,67.1,103.6,67,103.9,66.9L103.9,66.9z M103.2,69.1c0.7,0,1-0.2,1-0.7
						c0-0.2-0.1-0.4-0.2-0.5c-0.2-0.1-0.5-0.2-0.8-0.1h-1.1v1.3L103.2,69.1L103.2,69.1z M103.3,65.2c1.2,0,1.8,0.4,1.8,1.2
						c0,0.3-0.1,0.5-0.3,0.7c-0.2,0.2-0.4,0.3-0.7,0.3v0c0.3,0,0.6,0.1,0.8,0.3c0.2,0.2,0.3,0.4,0.3,0.7c0,0.4-0.2,0.8-0.5,1
						c-0.4,0.3-0.9,0.4-1.4,0.4h-2.2v-4.7L103.3,65.2L103.3,65.2z M96.9,66.3c-0.2,0.4-0.3,0.8-0.3,1.2c0,1.1,0.4,1.6,1.2,1.6
						c0.8,0,1.2-0.5,1.2-1.6s-0.4-1.6-1.2-1.6C97.5,65.9,97.1,66,96.9,66.3L96.9,66.3z M99.4,65.7c0.4,0.5,0.6,1.1,0.6,1.8
						c0,0.7-0.2,1.3-0.6,1.8c-0.4,0.4-1,0.7-1.6,0.6c-0.4,0-0.8-0.1-1.1-0.3c-0.3-0.2-0.6-0.5-0.8-0.8c-0.2-0.4-0.3-0.8-0.3-1.3
						c0-0.7,0.2-1.3,0.6-1.8c0.4-0.4,1-0.7,1.6-0.6C98.4,65.1,99,65.3,99.4,65.7z M93.5,66.3c-0.2-0.3-0.5-0.4-0.8-0.4
						c-0.3,0-0.6,0.1-0.8,0.3c-0.2,0.3-0.3,0.7-0.3,1.1v0.2c0,0.4,0.1,0.8,0.3,1.2c0.2,0.3,0.5,0.4,0.9,0.4c0.3,0,0.6-0.2,0.8-0.4
						c0.2-0.4,0.3-0.8,0.3-1.2C93.8,67.1,93.7,66.7,93.5,66.3L93.5,66.3z M94.3,69.3c-0.6,0.7-1.7,0.9-2.5,0.2
						c-0.1-0.1-0.2-0.1-0.2-0.2h-0.1l0.1,0.7v1.9h-1v-6.8h0.8l0.1,0.6h0.1c0.3-0.5,0.8-0.8,1.4-0.7c0.5,0,1,0.2,1.3,0.6
						C94.9,66.8,94.9,68.2,94.3,69.3L94.3,69.3z M88.6,65.2h1.1l-1.9,2.3l2.1,2.4h-1.1l-2-2.4v2.4h-1v-4.7h1v2.3L88.6,65.2z
						 M81.7,66.1c-0.2-0.2-0.5-0.3-0.7-0.3c-0.3,0-0.5,0.1-0.7,0.3c-0.2,0.2-0.3,0.6-0.3,0.9H82C82,66.7,81.9,66.4,81.7,66.1z
						 M82,69.8c-0.3,0.1-0.6,0.1-0.8,0.1c-0.6,0-1.2-0.2-1.7-0.6c-0.4-0.5-0.6-1.1-0.6-1.7c0-0.7,0.2-1.3,0.6-1.8
						c0.4-0.4,0.9-0.7,1.5-0.7c0.5,0,1.1,0.2,1.4,0.6c0.4,0.4,0.6,1,0.5,1.5v0.5h-3c0,0.4,0.1,0.8,0.4,1c0.3,0.2,0.6,0.4,1,0.4
						c0.5,0,1-0.1,1.5-0.3v0.8C82.5,69.7,82.2,69.8,82,69.8L82,69.8z M74.3,65.2v2.4c0,0.3,0,0.7-0.1,1.2l2.3-3.6h1.2v4.7h-0.9v-2.4
						c0-0.4,0-0.8,0.1-1.3l-2.3,3.6h-1.2v-4.7L74.3,65.2z M71.4,65.2h1.1l-1.9,2.3l2.1,2.4h-1.1l-2-2.4v2.4h-1v-4.7h1v2.3L71.4,65.2
						z M64.7,65.2h3v0.8h-2v3.9h-1L64.7,65.2z M62.3,66.1c-0.2-0.2-0.5-0.3-0.7-0.3c-0.3,0-0.5,0.1-0.7,0.3
						c-0.2,0.2-0.3,0.6-0.3,0.9h2.1C62.6,66.7,62.5,66.4,62.3,66.1L62.3,66.1z M62.6,69.8c-0.3,0.1-0.6,0.1-0.8,0.1
						c-0.6,0-1.2-0.2-1.7-0.6c-0.4-0.5-0.6-1.1-0.6-1.7c0-0.7,0.2-1.3,0.6-1.8c0.4-0.4,1-0.7,1.5-0.7c0.5,0,1.1,0.2,1.4,0.6
						c0.4,0.4,0.6,1,0.5,1.5v0.5h-3.1c0,0.4,0.1,0.8,0.4,1c0.3,0.2,0.6,0.4,1,0.4c0.5,0,1-0.1,1.5-0.3v0.8
						C63.1,69.7,62.9,69.8,62.6,69.8z M58.3,63.7v6.2h-1v-5.3h-1.7c-0.2,1.8-0.4,3-0.5,3.7c-0.1,0.5-0.3,1-0.6,1.4
						c-0.2,0.3-0.6,0.4-0.9,0.4c-0.2,0-0.4,0-0.6-0.1V69c0.1,0.1,0.3,0.1,0.5,0.1c0.2,0,0.4-0.2,0.5-0.4c0.2-0.5,0.3-1.1,0.4-1.6
						c0.1-0.8,0.3-2,0.5-3.5L58.3,63.7z"/>
				</g>
			</g>
		</g>
		<g>
			<g>
				<g>
					<path id="v4ntb_1_" class="st1" d="M145.7,35c-1.3,0.5-2.8,0.2-3.8-0.7c-1-1-1.3-2.5-0.8-3.8c0.8-1.7,2.8-2.6,4.5-1.8
						c1.2,0.5,2.1,1.8,2.1,3.1C147.8,33.2,147,34.5,145.7,35z M167.9,55.4h-6v-9.6c0.1-0.9-0.2-1.8-0.7-2.5c-0.5-0.5-1.3-0.8-2-0.7
						c-1.9,0-2.7,0.9-2.7,3.2v9.6h-6.1v-9.6c0-3,0.8-5.3,2.3-6.8s3.8-2.3,6.7-2.3c2.4,0,4.7,0.9,6.4,2.5c2,1.9,2.2,4.2,2.2,6.7
						L167.9,55.4L167.9,55.4z M189.8,46.9h-13.7c0.4,1.9,2,3.3,3.9,3.3c1.1,0,2.2-0.5,2.9-1.3h6.5c-1.2,4.2-5.2,7.1-9.6,7.1
						c-5.4,0.1-9.8-4.2-9.9-9.6c0.2-5.4,4.5-9.6,9.9-9.7c5.4,0,9.7,4.3,9.9,9.7L189.8,46.9L189.8,46.9z M180,42
						c-1.8,0-3.4,1.2-3.9,3h7.7C183.4,43.2,181.8,42,180,42L180,42z M120.1,55.9c-2.4,0-4.6-0.8-6.4-2.5c-2-2-2.2-4.2-2.2-6.7v-9.6
						h6v9.6c0,2.2,0.8,3.2,2.7,3.2c1.9,0,2.7-0.9,2.7-3.2v-9.6h6.1v9.6c0,3-0.8,5.3-2.3,6.8C125.3,55.2,123,55.9,120.1,55.9
						L120.1,55.9z M98.7,55.9c-2.6,0-5.1-1-7-2.8c-1.9-1.8-2.9-4.2-2.9-6.8c0-5.2,4.3-9.5,9.5-9.5c1.5,0,2.9,0.4,4.2,1.1v-9.6h6
						v15.8c0,3.2-0.1,5.6-1.4,7.7C105.4,54.4,102.4,55.9,98.7,55.9z M98.8,42.4c-2.1,0-3.8,1.7-3.9,3.8c0,2.1,1.7,3.9,3.8,3.9
						c0,0,0,0,0,0c1,0.1,2-0.3,2.7-1.1c0.7-0.7,1.1-1.7,1-2.8c0.1-1-0.3-2-1-2.8C100.8,42.8,99.8,42.4,98.8,42.4L98.8,42.4z
						 M86.7,55.4h-6v-9.6c0.1-0.9-0.2-1.7-0.7-2.5c-0.5-0.5-1.3-0.8-2.1-0.7c-1.9,0-2.7,0.9-2.7,3.2v9.6h-6.1v-9.6
						c0-3,0.8-5.3,2.3-6.8c1.5-1.5,3.8-2.3,6.7-2.3c2.4,0,4.7,0.9,6.4,2.5c2,1.9,2.2,4.2,2.2,6.7C86.7,45.9,86.7,55.4,86.7,55.4z
						 M66,37.3c1,2.9,1.2,6.1,0.4,9c-1.3,4.4-4.7,7.8-9.1,9.1c-2.4,0.7-5,0.7-7.4,0c-4.3-1.1-7.7-4.3-9.1-8.5c-0.8-2.2-1-4.7-0.6-7
						c1.1-4.2,4-7.7,8-9.4c0.1-1.6,1.8-2.6,3-3.1c0.6-0.2,1.2-0.4,1.8-0.5C60.2,26.9,64.1,32,66,37.3z M58.4,47.1v-7.5h-0.2
						c-0.6,0.9-3.7,2-5.5,1.5c-1.2-0.4-2.3-0.9-3.3-1.5v7.5c0.3,0.3,0.5,0.6,0.8,0.9c0.6,0.6,1.3,1.1,2.1,1.4c2.5,1.1,4.8-0.7,5.8-2
						L58.4,47.1L58.4,47.1z M191.5,36.7c0.8,0,1.6,0.4,1.9,1.2c0.4,0.7,0.4,1.6,0,2.3c-0.4,0.7-1.2,1.1-2,1.1c-0.8,0-1.6-0.4-2-1.1
						c-0.4-0.7-0.4-1.6,0-2.3C189.8,37.1,190.6,36.7,191.5,36.7L191.5,36.7z M191.4,37.2c-1,0-1.8,0.9-1.7,1.8c0,1,0.8,1.8,1.8,1.8
						c0.5,0,0.9-0.2,1.2-0.5c0.3-0.3,0.5-0.8,0.5-1.3c0-0.5-0.2-0.9-0.5-1.3C192.4,37.4,191.9,37.2,191.4,37.2L191.4,37.2z
						 M190.6,40.2v-2.3c0.3,0,0.6-0.1,0.9-0.1c0.3,0,0.5,0,0.8,0.2c0.1,0.1,0.2,0.3,0.2,0.5c0,0.3-0.2,0.5-0.5,0.5v0
						c0.2,0.1,0.4,0.3,0.4,0.5c0,0.2,0.1,0.4,0.2,0.5H192c-0.1-0.2-0.1-0.4-0.2-0.5c0-0.1-0.1-0.2-0.2-0.3c-0.1-0.1-0.2-0.1-0.3-0.1
						h-0.2v0.9L190.6,40.2z M191.4,38.9c0.3,0,0.5-0.1,0.5-0.3c0-0.2-0.2-0.3-0.5-0.3c-0.1,0-0.2,0-0.3,0v0.6L191.4,38.9z
						 M147.3,55.4h-5.9V36.7h5.9V55.4z M138.1,55.4h-5.9V28.3h5.9L138.1,55.4L138.1,55.4z"/>
				</g>
			</g>
		</g>
	</g>
</g>
</svg>