<!-- Generator: Adobe Illustrator 21.0.2, SVG Export Plug-In  -->
<svg version="1.1"
	 xmlns="http://www.w3.org/2000/svg" xmlns:xlink="http://www.w3.org/1999/xlink" xmlns:a="http://ns.adobe.com/AdobeSVGViewerExtensions/3.0/"
	 x="0px" y="0px" width="53.8px" height="58.8px" viewBox="0 0 53.8 58.8" style="enable-background:new 0 0 53.8 58.8;"
	 xml:space="preserve">
<style type="text/css">
	
		.st0{clip-path:url(#SVGID_2_);fill:none;stroke:#ff0000;stroke-width:2;stroke-linecap:round;stroke-linejoin:round;stroke-miterlimit:10;}
	.st1{clip-path:url(#SVGID_2_);fill:#ff0000;}
	
		.st2{clip-path:url(#SVGID_4_);fill:none;stroke:#ff0000;stroke-width:2;stroke-linecap:round;stroke-linejoin:round;stroke-miterlimit:10;}
	.st3{clip-path:url(#SVGID_4_);fill:#ff0000;}
</style>
<defs>
</defs>
<g>
	<defs>
		<rect id="SVGID_1_" x="0" width="53.8" height="58.8"/>
	</defs>
	<clipPath id="SVGID_2_">
		<use xlink:href="#SVGID_1_"  style="overflow:visible;"/>
	</clipPath>
	<path class="st0" d="M21.4,49.5H5.1c-2.2,0-4.1-1.8-4.1-4.1V5.1C1,2.8,2.8,1,5.1,1h43.6c2.2,0,4.1,1.8,4.1,4.1v40.4
		c0,2.2-1.8,4.1-4.1,4.1h-7"/>
	<line class="st0" x1="1.1" y1="8" x2="52.4" y2="8"/>
	<path class="st1" d="M7.7,4.5c0,0.6-0.5,1.1-1.1,1.1c-0.6,0-1.1-0.5-1.1-1.1c0-0.6,0.5-1.1,1.1-1.1C7.2,3.4,7.7,3.9,7.7,4.5"/>
	<path class="st1" d="M11,4.5c0,0.6-0.5,1.1-1.1,1.1c-0.6,0-1.1-0.5-1.1-1.1c0-0.6,0.5-1.1,1.1-1.1C10.5,3.4,11,3.9,11,4.5"/>
	<path class="st1" d="M14.2,4.5c0,0.6-0.5,1.1-1.1,1.1c-0.6,0-1.1-0.5-1.1-1.1c0-0.6,0.5-1.1,1.1-1.1C13.7,3.4,14.2,3.9,14.2,4.5"/>
	<polygon class="st0" points="23.5,42.2 28.5,57.8 30.9,52.9 35.7,57.7 38.7,54.7 33.9,49.9 38.7,47.6 	"/>
	<rect x="12" y="16.6" class="st0" width="30.4" height="4.2"/>
	<rect x="12" y="24.8" class="st0" width="30.4" height="4.2"/>
	<rect x="12" y="33" class="st0" width="30.4" height="4.2"/>
</g>
</svg>