<!-- Generator: Adobe Illustrator 21.0.2, SVG Export Plug-In  -->
<svg version="1.1"
	 xmlns="http://www.w3.org/2000/svg" xmlns:xlink="http://www.w3.org/1999/xlink" xmlns:a="http://ns.adobe.com/AdobeSVGViewerExtensions/3.0/"
	 x="0px" y="0px" width="82.8px" height="65px" viewBox="0 0 82.8 65" style="enable-background:new 0 0 82.8 65;"
	 xml:space="preserve">
<style type="text/css">
	
		.st0{clip-path:url(#SVGID_2_);fill:none;stroke:#ff0000;stroke-width:2;stroke-linecap:round;stroke-linejoin:round;stroke-miterlimit:10;}
	
		.st1{clip-path:url(#SVGID_4_);fill:none;stroke:#ff0000;stroke-width:2;stroke-linecap:round;stroke-linejoin:round;stroke-miterlimit:10;}
</style>
<defs>
</defs>
<g>
	<defs>
		<rect id="SVGID_1_" width="82.8" height="65"/>
	</defs>
	<clipPath id="SVGID_2_">
		<use xlink:href="#SVGID_1_"  style="overflow:visible;"/>
	</clipPath>
	<path class="st0" d="M15.2,2.3l-8.2,26c0,0,5.1,0.5,7.4,2.8s3.9,5,7.6,5.1s8.8-5.8,9.5-6.4c0.7-0.6,10.8-10.5,20.5-0.1
		c4.1,4.4,4.1,6.1,9.2,6.2c3.5,0.1,5.8-3,7.4-4.4s4.1-2.6,7.4-3.2c-1.9-6-8.5-25.5-8.5-25.5s-2.6,1-4.9,4.1s-8.1,4-10.6,0.2
		S45.2,1,41.7,1c-4.1,0-7.9,2-10.2,5.6s-7.1,4.9-10.5,0.8S17.2,3,15.2,2.3z"/>
	<path class="st0" d="M9.1,29.4L1,54.8c0,0,6,0.6,8.6,3.2c2.6,2.6,5.4,5.8,9.8,5.9c5.9,0.1,10.4-6,11.2-6.8
		c0.9-0.7,10-12.6,21.4-0.5c4.8,5.1,5,6.9,10.9,7.1c4.7,0.2,8-4.1,9.9-5.8c1.9-1.6,5.1-2.6,8.9-3.3c-1.6-5.2-6.2-18.9-8.6-25.8"/>
	<line class="st0" x1="27.6" y1="10" x2="23.9" y2="34.9"/>
	<line class="st0" x1="54.9" y1="10" x2="58.6" y2="34.9"/>
	<line class="st0" x1="25.9" y1="35" x2="22.5" y2="63.3"/>
	<line class="st0" x1="56.5" y1="35" x2="59.9" y2="63.3"/>
</g>
</svg>