<!-- Generator: Adobe Illustrator 21.0.2, SVG Export Plug-In  -->
<svg version="1.1"
	 xmlns="http://www.w3.org/2000/svg" xmlns:xlink="http://www.w3.org/1999/xlink" xmlns:a="http://ns.adobe.com/AdobeSVGViewerExtensions/3.0/"
	 x="0px" y="0px" width="60.1px" height="67.3px" viewBox="0 0 60.1 67.3" style="enable-background:new 0 0 60.1 67.3;"
	 xml:space="preserve">
<style type="text/css">
	
		.st0{clip-path:url(#SVGID_2_);fill:none;stroke:#ff0000;stroke-width:2;stroke-linecap:round;stroke-linejoin:round;stroke-miterlimit:10;}
	
		.st1{clip-path:url(#SVGID_4_);fill:none;stroke:#ff0000;stroke-width:2;stroke-linecap:round;stroke-linejoin:round;stroke-miterlimit:10;}
</style>
<defs>
</defs>
<g>
	<defs>
		<rect id="SVGID_1_" width="60.1" height="67.3"/>
	</defs>
	<clipPath id="SVGID_2_">
		<use xlink:href="#SVGID_1_"  style="overflow:visible;"/>
	</clipPath>
	<path class="st0" d="M31.9,52.4H7.7V24.3H1L27.9,1l25.7,23.3H47c0,0,0,3.1,0.1,7.2"/>
	<polyline class="st0" points="31.2,42.7 18.3,42.7 18.3,26.5 36.5,26.5 36.5,31.1 	"/>
	<path class="st0" d="M59.1,40.1v23.2c0,1.9-0.9,2.9-2.8,2.9H34.4c-1.9,0-2.8-1-2.8-2.9V34.7c0-2,0.9-2.9,2.8-2.9h16.9"/>
	<line class="st0" x1="51.7" y1="31.8" x2="59.1" y2="39.9"/>
	<line class="st0" x1="52.1" y1="53.3" x2="39" y2="53.3"/>
	<line class="st0" x1="52.1" y1="59" x2="39" y2="59"/>
	<line class="st0" x1="52.1" y1="41.9" x2="39" y2="41.9"/>
	<line class="st0" x1="52.1" y1="47.5" x2="39" y2="47.5"/>
	<path class="st0" d="M59.1,40.1h-4.9c-1.9,0-2.8-1-2.8-2.9v-5.4"/>
	<path class="st0" d="M22.6,17.7c0,0,0.9-4.9,5-4.9c4.1,0,4.9,4.9,4.9,4.9H22.6z"/>
	<polyline class="st0" points="24.1,26.5 24.1,32.2 24.1,42.6 	"/>
	<line class="st0" x1="24.1" y1="32.4" x2="19.2" y2="32.4"/>
</g>
</svg>