<!-- Generator: Adobe Illustrator 21.0.2, SVG Export Plug-In  -->
<svg version="1.1"
	 xmlns="http://www.w3.org/2000/svg" xmlns:xlink="http://www.w3.org/1999/xlink" xmlns:a="http://ns.adobe.com/AdobeSVGViewerExtensions/3.0/"
	 x="0px" y="0px" width="77.5px" height="64.7px" viewBox="0 0 77.5 64.7" style="enable-background:new 0 0 77.5 64.7;"
	 xml:space="preserve">
<style type="text/css">
	
		.st0{clip-path:url(#SVGID_2_);fill:none;stroke:#ff0000;stroke-width:2;stroke-linecap:round;stroke-linejoin:round;stroke-miterlimit:10;}
	
		.st1{clip-path:url(#SVGID_4_);fill:none;stroke:#ff0000;stroke-width:2;stroke-linecap:round;stroke-linejoin:round;stroke-miterlimit:10;}
</style>
<defs>
</defs>
<g>
	<defs>
		<rect id="SVGID_1_" width="77.5" height="64.7"/>
	</defs>
	<clipPath id="SVGID_2_">
		<use xlink:href="#SVGID_1_"  style="overflow:visible;"/>
	</clipPath>
	<path class="st0" d="M35.5,28.3c0,0,0.4-2.7,2.5-2.7s2.5,2.7,2.5,2.7H35.5z"/>
	<path class="st0" d="M48.4,46.4c0-2.2,0-15.1,0-15.1h3.5L38,18.8L23.6,31.3h3.6v15.1H48.4z"/>
	<path class="st0" d="M42.5,59.1H9.4c-8.8,0-8.4-7.4-8.4-7.4V12.2C1,0.5,12.2,1,12.2,1v44.7c0,0-11-0.8-11,7.5"/>
	<polyline class="st0" points="12.5,10.7 70.5,10.7 70.5,30.3 	"/>
	<polygon class="st0" points="37.8,63.7 76.5,63.7 76.5,25 	"/>
	<polygon class="st0" points="54.6,56.4 69.2,56.4 69.2,41.7 	"/>
	<rect x="33.9" y="32.8" class="st0" width="7.6" height="7.6"/>
	<line class="st0" x1="12.8" y1="52.7" x2="48.7" y2="52.7"/>
	<line class="st0" x1="49.3" y1="61.2" x2="49.3" y2="63.5"/>
	<line class="st0" x1="54.3" y1="61.2" x2="54.3" y2="63.5"/>
	<line class="st0" x1="59.3" y1="61.2" x2="59.3" y2="63.5"/>
	<line class="st0" x1="64.3" y1="61.2" x2="64.3" y2="63.5"/>
	<line class="st0" x1="69.3" y1="61.2" x2="69.3" y2="63.5"/>
</g>
</svg>