<svg id="Layer_1" data-name="Layer 1" xmlns="http://www.w3.org/2000/svg" viewBox="0 0 30.875 30.875"><title>Zoom2</title><circle cx="15.438" cy="15.438" r="15.438" fill="#dc3033"/><path d="M8.894,8.789a6.466,6.466,0,1,0,9.145,0A6.465,6.465,0,0,0,8.894,8.789Zm7.923,7.923a4.738,4.738,0,1,1,0-6.7A4.739,4.739,0,0,1,16.817,16.712Z" transform="translate(-0.129 0.058)" fill="#fff"/><path d="M17.523,19.518l.006.008L21.4,23.4a1.607,1.607,0,0,0,2.267,0h0a1.607,1.607,0,0,0,0-2.266L19.8,17.259l-.046-.044-.015.015a6.522,6.522,0,0,1-2.212,2.288Z" transform="translate(-0.129 0.058)" fill="#fff"/></svg>