<!-- Generator: Adobe Illustrator 21.0.2, SVG Export Plug-In  -->
<svg version="1.1"
	 xmlns="http://www.w3.org/2000/svg" xmlns:xlink="http://www.w3.org/1999/xlink" xmlns:a="http://ns.adobe.com/AdobeSVGViewerExtensions/3.0/"
	 x="0px" y="0px" width="480.6px" height="478.3px" viewBox="0 0 480.6 478.3" style="enable-background:new 0 0 480.6 478.3;"
	 xml:space="preserve">
<style type="text/css">
	.st0{clip-path:url(#SVGID_2_);fill:#de0028;}
	.st1{clip-path:url(#SVGID_4_);fill:#de0028;}
</style>
<defs>
</defs>
<g>
	<defs>
		<rect id="SVGID_1_" x="0" y="0" width="480.6" height="478.3"/>
	</defs>
	<clipPath id="SVGID_2_">
		<use xlink:href="#SVGID_1_"  style="overflow:visible;"/>
	</clipPath>
	<path class="st0" d="M167.1,65c11.8,9.7,23.3,19,34.9,28.6c-1.2,1.6-2.1,3-3.1,4.3C155.5,152.6,112.1,207.2,68.8,262
		c-33.5,42.3-31,103.2,5.7,140.2c43.9,44.3,117.8,40.5,157.1-8.7c65-81.4,129.5-163.1,194-244.8c23.7-30,16.9-73-14.3-94.2
		c-25.4-17.2-64.9-10.9-84.8,14.4C263.9,148,201.6,227.2,139.5,306.6c-5.4,6.9-9.3,15.2-7.2,24.6c2.1,9.9,10,14.6,18.5,17
		c8.8,2.5,16.7-0.6,22.6-8.1c41.4-52.9,82.8-105.7,124.3-158.5c1.1-1.4,2.3-2.8,3.8-4.7c11.8,9.6,23.3,19.1,35.2,28.8
		c-8.7,11.1-17.1,21.8-25.5,32.5c-34,43.4-68,86.8-102.1,130.2c-22.8,28.9-64.5,35.5-92.2,13.1c-20-16.1-32.4-37.2-30.1-64.2
		c1.2-13.6,6.4-26,14.8-36.6c61.9-79.1,123.9-158.2,186.4-236.8c18.1-22.8,41.4-39,71-42.8c64.6-8.3,106.9,37.4,117.8,79.5
		c9.3,35.9,2.7,69.1-20.1,98.1c-63.5,81-127.4,161.8-191.8,242.1c-25.6,31.9-60.1,51.5-100.5,56.4C108,484,48.5,459.6,18.4,399.7
		C-9.7,343.6-6,288.7,32.4,238.2C75.9,181,120.4,124.7,164.5,68C165.2,67.1,166,66.3,167.1,65"/>
</g>
</svg>