<!-- Generator: Adobe Illustrator 21.0.2, SVG Export Plug-In  -->
<svg version="1.1"
	 xmlns="http://www.w3.org/2000/svg" xmlns:xlink="http://www.w3.org/1999/xlink" xmlns:a="http://ns.adobe.com/AdobeSVGViewerExtensions/3.0/"
	 x="0px" y="0px" width="30.8px" height="33px" viewBox="0 0 30.8 33" style="enable-background:new 0 0 30.8 33;"
	 xml:space="preserve">
<style type="text/css">
	
		.st0{clip-path:url(#SVGID_2_);fill:none;stroke:#ff0000;stroke-width:3;stroke-linecap:round;stroke-linejoin:round;stroke-miterlimit:10;}
	
		.st1{clip-path:url(#SVGID_4_);fill:none;stroke:#ff0000;stroke-width:3;stroke-linecap:round;stroke-linejoin:round;stroke-miterlimit:10;}
</style>
<defs>
</defs>
<g>
	<defs>
		<rect id="SVGID_1_" width="30.8" height="33"/>
	</defs>
	<clipPath id="SVGID_2_">
		<use xlink:href="#SVGID_1_"  style="overflow:visible;"/>
	</clipPath>
	<path class="st0" d="M3,16.5L13.5,6L9,1.5L2.2,8.3C2.2,8.3,3.2,16.4,3,16.5z"/>
	<line class="st0" x1="18.7" y1="20.3" x2="9.3" y2="10.9"/>
	<polyline class="st0" points="12.5,20.5 23.8,9.2 23.9,6.4 29,4.2 26.6,9.2 24.2,9.2 	"/>
	<path class="st0" d="M2.9,31L2,30.1c-0.6-0.6-0.6-1.7,0-2.4l7.2-7.2c0.6-0.6,1.7-0.6,2.4,0l0.9,0.9c0.6,0.6,0.6,1.7,0,2.4L5.2,31
		C4.6,31.6,3.5,31.6,2.9,31z"/>
	<path class="st0" d="M28.8,30.1L27.9,31c-0.6,0.6-1.7,0.6-2.4,0l-7.2-7.2c-0.6-0.6-0.6-1.7,0-2.4l0.9-0.9c0.6-0.6,1.7-0.6,2.4,0
		l7.2,7.2C29.5,28.4,29.5,29.5,28.8,30.1z"/>
</g>
</svg>